<?xml version="1.0" encoding="utf-8"?>
<!-- Generator: Adobe Illustrator 16.0.0, SVG Export Plug-In . SVG Version: 6.00 Build 0)  -->
<!DOCTYPE svg PUBLIC "-//W3C//DTD SVG 1.1//EN" "http://www.w3.org/Graphics/SVG/1.1/DTD/svg11.dtd">
<svg version="1.1" id="Layer_1" xmlns="http://www.w3.org/2000/svg" xmlns:xlink="http://www.w3.org/1999/xlink" x="0px" y="0px"
	 width="85.439px" height="203px" viewBox="0 0 85.439 203" enable-background="new 0 0 85.439 203" xml:space="preserve">
<image display="none" overflow="visible" width="2880" height="1486" xlink:href="../Desktop/35437d5a-51d2-4f72-a7b2-c95c6e014956.png"  transform="matrix(1 0 0 1 -2207.9922 -756.0869)">
</image>
<g>
	<polygon fill="none" stroke="#000000" stroke-width="3" stroke-linejoin="round" points="-37.5,-291.457 208.379,-313.282 
		32.433,-225.087 	"/>
	<polygon fill="none" stroke="#000000" stroke-width="3" stroke-linejoin="round" points="16.396,-425.087 208.379,-313.282 
		-37.5,-291.457 	"/>
	<polygon fill="none" stroke="#000000" stroke-width="3" stroke-linejoin="round" points="208.379,-313.282 186.555,-278.983 
		32.433,-225.087 	"/>
</g>
<g>
	<polygon fill="none" stroke="#000000" stroke-width="3" stroke-linejoin="round" points="-1081.324,54.619 -966.89,-27.34 
		-931.323,128.33 	"/>
	<polygon fill="none" stroke="#000000" stroke-width="3" stroke-linejoin="round" points="-976.685,146.888 -931.323,128.33 
		-1081.324,54.619 	"/>
	<polygon fill="none" stroke="#000000" stroke-width="3" stroke-linejoin="round" points="-1086.479,104.619 -1081.324,54.619 
		-976.685,146.888 	"/>
	<polygon fill="none" stroke="#000000" stroke-width="3" stroke-linejoin="round" points="-1125.139,64.414 -1116.375,15.96 
		-1086.479,104.619 	"/>
	<polygon fill="none" stroke="#000000" stroke-width="3" stroke-linejoin="round" points="-1055.551,-53.112 -1081.324,54.619 
		-1116.375,15.96 	"/>
	<polygon fill="none" stroke="#000000" stroke-width="3" stroke-linejoin="round" points="-966.89,-27.34 -1055.551,-53.112 
		-1081.324,54.619 	"/>
</g>
<g>
	<polygon fill="none" stroke="#000000" stroke-width="3" stroke-linejoin="round" points="45.492,201.5 40.317,152.332 
		25.529,167.488 	"/>
	<polygon fill="none" stroke="#000000" stroke-width="3" stroke-linejoin="round" points="81.352,44.384 45.492,201.5 
		40.317,152.332 	"/>
	<polygon fill="none" stroke="#000000" stroke-width="3" stroke-linejoin="round" points="1.5,28.856 25.529,167.488 
		40.317,152.332 	"/>
	<polygon fill="none" stroke="#000000" stroke-width="3" stroke-linejoin="round" points="42.165,6.676 1.5,28.856 81.352,44.384 	
		"/>
	<polygon fill="none" stroke="#000000" stroke-width="3" stroke-linejoin="round" points="83.939,1.5 81.352,44.384 42.165,6.676 	
		"/>
</g>
</svg>
