<?xml version="1.0" encoding="utf-8"?>
<!-- Generator: Adobe Illustrator 16.0.0, SVG Export Plug-In . SVG Version: 6.00 Build 0)  -->
<!DOCTYPE svg PUBLIC "-//W3C//DTD SVG 1.1//EN" "http://www.w3.org/Graphics/SVG/1.1/DTD/svg11.dtd">
<svg version="1.1" id="Layer_1" xmlns="http://www.w3.org/2000/svg" xmlns:xlink="http://www.w3.org/1999/xlink" x="0px" y="0px"
	 width="196.816px" height="203px" viewBox="0 0 196.816 203" enable-background="new 0 0 196.816 203" xml:space="preserve">
<image display="none" overflow="visible" width="2880" height="1486" xlink:href="../Desktop/35437d5a-51d2-4f72-a7b2-c95c6e014956.png"  transform="matrix(1 0 0 1 -1081.3535 -701.4746)">
</image>
<g>
	<polygon fill="none" stroke="#000000" stroke-width="3" stroke-linejoin="round" points="1089.139,-236.845 1335.018,-258.67 
		1159.071,-170.475 	"/>
	<polygon fill="none" stroke="#000000" stroke-width="3" stroke-linejoin="round" points="1143.034,-370.475 1335.018,-258.67 
		1089.139,-236.845 	"/>
	<polygon fill="none" stroke="#000000" stroke-width="3" stroke-linejoin="round" points="1335.018,-258.67 1313.193,-224.371 
		1159.071,-170.475 	"/>
</g>
<g>
	<polygon fill="none" stroke="#000000" stroke-width="3" stroke-linejoin="round" points="45.315,109.231 159.749,27.272 
		195.316,182.942 	"/>
	<polygon fill="none" stroke="#000000" stroke-width="3" stroke-linejoin="round" points="149.954,201.5 195.316,182.942 
		45.315,109.231 	"/>
	<polygon fill="none" stroke="#000000" stroke-width="3" stroke-linejoin="round" points="40.16,159.231 45.315,109.231 
		149.954,201.5 	"/>
	<polygon fill="none" stroke="#000000" stroke-width="3" stroke-linejoin="round" points="1.5,119.026 10.263,70.572 40.16,159.231 
			"/>
	<polygon fill="none" stroke="#000000" stroke-width="3" stroke-linejoin="round" points="71.088,1.5 45.315,109.231 10.263,70.572 
			"/>
	<polygon fill="none" stroke="#000000" stroke-width="3" stroke-linejoin="round" points="159.749,27.272 71.088,1.5 
		45.315,109.231 	"/>
</g>
<g>
	<polygon fill="none" stroke="#000000" stroke-width="3" stroke-linejoin="round" points="346.334,205.107 341.159,155.939 
		326.371,171.096 	"/>
	<polygon fill="none" stroke="#000000" stroke-width="3" stroke-linejoin="round" points="382.193,47.991 346.334,205.107 
		341.159,155.939 	"/>
	<polygon fill="none" stroke="#000000" stroke-width="3" stroke-linejoin="round" points="302.342,32.464 326.371,171.096 
		341.159,155.939 	"/>
	<polygon fill="none" stroke="#000000" stroke-width="3" stroke-linejoin="round" points="343.007,10.283 302.342,32.464 
		382.193,47.991 	"/>
	<polygon fill="none" stroke="#000000" stroke-width="3" stroke-linejoin="round" points="384.781,5.107 382.193,47.991 
		343.007,10.283 	"/>
</g>
</svg>
